<?xml version="1.0" encoding="UTF-8"?>
<!DOCTYPE svg PUBLIC "-//W3C//DTD SVG 1.1//EN" "http://www.w3.org/Graphics/SVG/1.1/DTD/svg11.dtd">
<svg xmlns="http://www.w3.org/2000/svg" version="1.1" width="1500px" height="1500px" style="shape-rendering:geometricPrecision; text-rendering:geometricPrecision; image-rendering:optimizeQuality; fill-rule:evenodd; clip-rule:evenodd" xmlns:xlink="http://www.w3.org/1999/xlink">
<g><path style="opacity:0.982" fill="#fefefd" d="M 1218.5,61.5 C 1254.04,58.1736 1277.87,73.1736 1290,106.5C 1290.77,110.147 1291.44,113.814 1292,117.5C 1292.67,141.5 1292.67,165.5 1292,189.5C 1290.14,236.728 1276.48,280.061 1251,319.5C 1246.74,325.019 1242.24,330.352 1237.5,335.5C 1302.49,400.949 1331.66,479.949 1325,572.5C 1317.07,642.892 1288.57,703.225 1239.5,753.5C 1249.68,779.746 1245.18,803.079 1226,823.5C 1203.27,844.23 1181.93,866.23 1162,889.5C 1038.44,1015.73 915.606,1142.56 793.5,1270C 778.644,1281.11 761.977,1285.11 743.5,1282C 733.507,1280.12 724.507,1276.12 716.5,1270C 591.94,1142.77 468.106,1014.94 345,886.5C 323.613,865.113 302.279,843.779 281,822.5C 264.469,801.874 260.969,779.207 270.5,754.5C 205.313,687.124 176.48,606.457 184,512.5C 192.718,443.237 221.551,384.07 270.5,335C 246.878,307.256 231.045,275.422 223,239.5C 217.157,211.97 214.991,184.137 216.5,156C 216.667,141.833 216.833,127.667 217,113.5C 221.793,91.3708 234.627,75.8708 255.5,67C 286.489,57.5526 311.656,65.7193 331,91.5C 335,98.8333 339,106.167 343,113.5C 347.5,118 352,122.5 356.5,127C 381.841,145.012 408.507,161.012 436.5,175C 464.154,187.706 491.487,200.873 518.5,214.5C 523.351,209.815 528.351,205.315 533.5,201C 623.606,143.312 721.606,123.645 827.5,142C 880.54,151.895 929.54,171.562 974.5,201C 979.345,205.18 984.178,209.347 989,213.5C 1034.16,193.337 1078.33,171.17 1121.5,147C 1130.33,140.752 1139.33,134.752 1148.5,129C 1154.3,124.2 1159.8,119.033 1165,113.5C 1169.59,105.324 1173.92,96.9906 1178,88.5C 1188.02,74.0853 1201.52,65.0853 1218.5,61.5 Z"/></g>
<g><path style="opacity:1" fill="#ff7b00" d="M 1141.5,331.5 C 1140.41,331.62 1139.75,332.287 1139.5,333.5C 1139.54,334.416 1139.88,335.083 1140.5,335.5C 1200.49,370.995 1239.99,422.329 1259,489.5C 1276.4,580.457 1251.9,657.957 1185.5,722C 1120.03,777.034 1045.36,795.368 961.5,777C 855.831,745.188 794.664,674.688 778,565.5C 774.138,503.77 790.805,448.437 828,399.5C 844.532,381.301 862.032,364.135 880.5,348C 923.233,317.286 968.566,290.619 1016.5,268C 1063.59,246.788 1109.59,223.455 1154.5,198C 1167.11,189.722 1179.44,181.056 1191.5,172C 1198.67,164.833 1205.83,157.667 1213,150.5C 1219.48,141.865 1224.65,132.532 1228.5,122.5C 1229.32,121.614 1230.32,121.281 1231.5,121.5C 1234.2,156.367 1232.37,191.033 1226,225.5C 1215.67,275.303 1187.5,310.637 1141.5,331.5 Z"/></g>
<g><path style="opacity:1" fill="#564799" d="M 276.5,123.5 C 277.822,123.33 278.989,123.663 280,124.5C 285.647,138.132 293.647,150.132 304,160.5C 316.947,173.222 331.113,184.389 346.5,194C 386.359,217.931 427.692,239.265 470.5,258C 507.736,276.284 544.403,295.618 580.5,316C 614.29,336.664 644.79,361.498 672,390.5C 738.18,472.62 748.18,561.287 702,656.5C 657.882,731.562 592.382,774.062 505.5,784C 417.389,787.326 345.889,754.826 291,686.5C 234.852,606.484 228.185,522.484 271,434.5C 293.782,392.052 326.282,359.218 368.5,336C 369.705,333.766 369.039,332.099 366.5,331C 320.603,309.77 292.436,274.27 282,224.5C 280.234,216.572 278.901,208.572 278,200.5C 276.602,174.831 276.102,149.164 276.5,123.5 Z"/></g>
<g><path style="opacity:1" fill="#ff7b00" d="M 740.5,195.5 C 812.036,194.048 878.036,212.214 938.5,250C 941.064,251.062 942.731,252.896 943.5,255.5C 943.392,256.442 943.059,257.275 942.5,258C 889.192,283.631 842.359,318.131 802,361.5C 782.885,383.967 767.885,408.967 757,436.5C 754.415,437.885 752.415,437.218 751,434.5C 735.481,397.99 713.314,366.157 684.5,339C 649.754,307.267 611.421,280.601 569.5,259C 564.291,255.791 564.291,252.791 569.5,250C 578.461,245.519 587.128,240.519 595.5,235C 641.048,211.364 689.382,198.198 740.5,195.5 Z"/></g>
<g><path style="opacity:1" fill="#fec084" d="M 1141.5,331.5 C 1140.77,332.708 1140.43,334.041 1140.5,335.5C 1139.88,335.083 1139.54,334.416 1139.5,333.5C 1139.75,332.287 1140.41,331.62 1141.5,331.5 Z"/></g>
<g><path style="opacity:1" fill="#fdfdfd" d="M 477.5,360.5 C 554.939,359.452 613.439,391.786 653,457.5C 681.456,518.533 680.123,578.867 649,638.5C 611.748,696.476 558.415,726.809 489,729.5C 408.195,727.297 349.862,690.297 314,618.5C 290.337,555.757 296.337,496.09 332,439.5C 368.402,391.046 416.902,364.713 477.5,360.5 Z"/></g>
<g><path style="opacity:1" fill="#fefdfd" d="M 1000.5,361.5 C 1079.72,355.694 1140.88,385.694 1184,451.5C 1220.24,521.898 1216.24,589.898 1172,655.5C 1132.75,703.957 1081.75,728.29 1019,728.5C 938.917,725.32 881.917,687.653 848,615.5C 827.575,560.798 830.575,507.464 857,455.5C 883.355,411.501 921.188,382.001 970.5,367C 980.58,364.827 990.58,362.994 1000.5,361.5 Z"/></g>
<g><path style="opacity:1" fill="#000000" d="M 516.5,438.5 C 546.988,437.94 572.488,448.94 593,471.5C 616.278,507.508 616.278,543.508 593,579.5C 566.172,612.339 532.338,622.506 491.5,610C 471.744,600.92 455.577,587.42 443,569.5C 441.431,562.686 439.431,556.019 437,549.5C 428.332,505.354 443.165,471.854 481.5,449C 492.916,444.359 504.582,440.859 516.5,438.5 Z"/></g>
<g><path style="opacity:1" fill="#000000" d="M 980.5,438.5 C 1033.3,440.782 1064.47,467.782 1074,519.5C 1074.31,563.172 1054.48,593.672 1014.5,611C 999.686,614.361 984.686,615.361 969.5,614C 936.135,606.193 913.635,586.027 902,553.5C 893.607,522.47 898.94,494.137 918,468.5C 923.473,462.238 929.64,456.738 936.5,452C 945.339,447.942 954.339,444.276 963.5,441C 969.317,440.191 974.983,439.358 980.5,438.5 Z"/></g>
<g><path style="opacity:1" fill="#fbfbfb" d="M 535.5,452.5 C 546.247,451.439 556.58,452.939 566.5,457C 571.113,461.942 576.113,466.609 581.5,471C 597.041,487.683 600.208,506.517 591,527.5C 571.612,555.63 546.779,561.797 516.5,546C 493.538,526.593 488.705,503.426 502,476.5C 504.783,472.049 507.95,467.883 511.5,464C 515.701,461.151 520.034,458.484 524.5,456C 528.268,454.762 531.934,453.596 535.5,452.5 Z"/></g>
<g><path style="opacity:1" fill="#fbfbfb" d="M 955.5,452.5 C 981.796,450.559 1000.3,461.559 1011,485.5C 1018.69,524.77 1003.03,548.103 964,555.5C 943.144,553.92 927.477,544.254 917,526.5C 913.815,519.947 911.648,513.114 910.5,506C 911.746,492.415 916.413,480.248 924.5,469.5C 928.451,466.886 932.117,463.886 935.5,460.5C 942.04,457.22 948.707,454.553 955.5,452.5 Z"/></g>
<g><path style="opacity:1" fill="#ff7b00" d="M 753.5,650.5 C 754.675,650.281 755.675,650.614 756.5,651.5C 768.452,682.751 785.952,710.417 809,734.5C 812.487,738.225 812.32,741.725 808.5,745C 790.862,761.638 773.528,778.638 756.5,796C 753.788,796.738 751.455,796.071 749.5,794C 731.542,776.21 713.876,758.377 696.5,740.5C 707.159,727.001 717.659,713.335 728,699.5C 737.563,683.706 746.063,667.373 753.5,650.5 Z"/></g>
<g><path style="opacity:1" fill="#ff7b00" d="M 654.5,773.5 C 657.14,773.954 659.473,775.121 661.5,777C 690.193,806.693 719.193,836.026 748.5,865C 750.453,866.633 752.62,867.799 755,868.5C 755.833,868.333 756.667,868.167 757.5,868C 777.333,846.833 797.833,826.333 819,806.5C 826.5,798.333 834,790.167 841.5,782C 845.049,778.943 848.716,776.109 852.5,773.5C 902.825,809.494 959.159,827.494 1021.5,827.5C 1075.83,827.171 1126.16,813.004 1172.5,785C 1174.35,783.872 1176.35,783.372 1178.5,783.5C 1178.65,784.552 1178.48,785.552 1178,786.5C 1155.27,807.23 1133.93,829.23 1114,852.5C 993.903,975.595 874.236,1098.93 755,1222.5C 741.597,1208.76 727.93,1195.43 714,1182.5C 660.368,1125.2 605.702,1068.87 550,1013.5C 531.551,992.562 512.218,972.562 492,953.5C 438.647,896.481 384.313,840.481 329,785.5C 328.51,784.207 328.343,782.873 328.5,781.5C 395.406,822.853 467.74,836.353 545.5,822C 574.566,815.296 602.232,804.962 628.5,791C 637.75,785.887 646.417,780.053 654.5,773.5 Z"/></g>
</svg>
